<svg width="164" height="27" viewBox="0 0 164 27" fill="none" xmlns="http://www.w3.org/2000/svg">
<path d="M14.6699 0.320312L17.8247 9.4123H28.0337L19.7744 15.0315L22.9292 24.1234L14.6699 18.5043L6.41065 24.1234L9.56542 15.0315L1.30614 9.4123H11.5152L14.6699 0.320312Z" fill="#FFBB0B"/>
<path d="M48.3936 0.320312L51.5483 9.4123H61.7574L53.4981 15.0315L56.6528 24.1234L48.3936 18.5043L40.1343 24.1234L43.289 15.0315L35.0298 9.4123H45.2388L48.3936 0.320312Z" fill="#FFBB0B"/>
<path d="M82.1174 0.320312L85.2722 9.4123H95.4812L87.222 15.0315L90.3767 24.1234L82.1174 18.5043L73.8582 24.1234L77.0129 15.0315L68.7536 9.4123H78.9627L82.1174 0.320312Z" fill="#FFBB0B"/>
<path d="M115.841 0.320312L118.996 9.4123H129.205L120.946 15.0315L124.1 24.1234L115.841 18.5043L107.582 24.1234L110.737 15.0315L102.477 9.4123H112.686L115.841 0.320312Z" fill="#FFBB0B"/>
<path d="M149.565 0.320312L152.719 9.4123H162.928L154.669 15.0315L157.824 24.1234L149.565 18.5043L141.305 24.1234L144.46 15.0315L136.201 9.4123H146.41L149.565 0.320312Z" fill="#FFBB0B"/>
</svg>
